<svg xmlns="http://www.w3.org/2000/svg" xmlns:xlink="http://www.w3.org/1999/xlink" width="1920" zoomAndPan="magnify" viewBox="0 0 1440 225" height="300" preserveAspectRatio="xMidYMid meet" version="1.2"><defs><filter x="0%" y="0%" width="100%" filterUnits="objectBoundingBox" id="603fa8c07f" height="100%"><feColorMatrix values="0 0 0 0 1 0 0 0 0 1 0 0 0 0 1 0 0 0 1 0" type="matrix" in="SourceGraphic"/></filter><clipPath id="2e3d89e67a"><path d="M 0 39 L 1440 39 L 1440 210 L 0 210 Z M 0 39 "/></clipPath><clipPath id="f2d457dcac"><path d="M -177.367188 -10.96875 L 1534.695312 65.109375 L 1514.882812 510.921875 L -197.175781 434.839844 Z M -177.367188 -10.96875 "/></clipPath><clipPath id="2b66c42256"><path d="M -177.367188 -10.96875 L 1534.695312 65.109375 L 1514.882812 510.921875 L -197.175781 434.839844 Z M -177.367188 -10.96875 "/></clipPath><clipPath id="82f68d5c86"><path d="M 0 97 L 1440 97 L 1440 210 L 0 210 Z M 0 97 "/></clipPath><clipPath id="440fd69ae0"><path d="M -177.367188 -10.96875 L 1534.695312 65.109375 L 1514.882812 510.921875 L -197.175781 434.839844 Z M -177.367188 -10.96875 "/></clipPath><clipPath id="bee5347021"><path d="M -177.367188 -10.96875 L 1534.695312 65.109375 L 1514.882812 510.921875 L -197.175781 434.839844 Z M -177.367188 -10.96875 "/></clipPath><clipPath id="8b5ae9dae0"><rect x="0" width="1440" y="0" height="210"/></clipPath><clipPath id="50c83688e5"><path d="M 0 36 L 1440 36 L 1440 208 L 0 208 Z M 0 36 "/></clipPath><clipPath id="aa99db6ef9"><path d="M -103.320312 -9.679688 L 1461.132812 59.839844 L 1443.023438 467.4375 L -121.433594 397.917969 Z M -103.320312 -9.679688 "/></clipPath><clipPath id="5d6886ae5c"><path d="M -103.320312 -9.679688 L 1461.132812 59.839844 L 1443.023438 467.4375 L -121.433594 397.917969 Z M -103.320312 -9.679688 "/></clipPath><clipPath id="040c43eadf"><path d="M 0 89 L 1440 89 L 1440 208 L 0 208 Z M 0 89 "/></clipPath><clipPath id="b0c85279ab"><path d="M -103.320312 -9.679688 L 1461.132812 59.839844 L 1443.023438 467.4375 L -121.433594 397.917969 Z M -103.320312 -9.679688 "/></clipPath><clipPath id="60c8639bbd"><path d="M -103.320312 -9.679688 L 1461.132812 59.839844 L 1443.023438 467.4375 L -121.433594 397.917969 Z M -103.320312 -9.679688 "/></clipPath><clipPath id="473bbefb06"><rect x="0" width="1440" y="0" height="208"/></clipPath><clipPath id="1d6afff707"><path d="M 0 35 L 1440 35 L 1440 75 L 0 75 Z M 0 35 "/></clipPath><clipPath id="9a0a394aa5"><path d="M -109.214844 -10.074219 L 1455.242188 59.445312 L 1437.128906 467.042969 L -127.328125 397.523438 Z M -109.214844 -10.074219 "/></clipPath><clipPath id="df6d53b82a"><path d="M -109.214844 -10.074219 L 1455.242188 59.445312 L 1437.128906 467.042969 L -127.328125 397.523438 Z M -109.214844 -10.074219 "/></clipPath><clipPath id="0ff348d58f"><rect x="0" width="1440" y="0" height="75"/></clipPath><clipPath id="87fffe071b"><path d="M 0 19 L 1440 19 L 1440 225 L 0 225 Z M 0 19 "/></clipPath><clipPath id="bc9189de78"><path d="M -132.980469 -27.890625 L 1489.167969 44.195312 L 1470.390625 466.777344 L -151.761719 394.695312 Z M -132.980469 -27.890625 "/></clipPath><clipPath id="f5a441d893"><path d="M -132.980469 -27.890625 L 1489.167969 44.195312 L 1470.390625 466.777344 L -151.761719 394.695312 Z M -132.980469 -27.890625 "/></clipPath><clipPath id="25436d0ef1"><path d="M 0 75 L 1440 75 L 1440 225 L 0 225 Z M 0 75 "/></clipPath><clipPath id="bffeef2bc8"><path d="M -132.980469 -27.890625 L 1489.167969 44.195312 L 1470.390625 466.777344 L -151.761719 394.695312 Z M -132.980469 -27.890625 "/></clipPath><clipPath id="64d03b50f6"><path d="M -132.980469 -27.890625 L 1489.167969 44.195312 L 1470.390625 466.777344 L -151.761719 394.695312 Z M -132.980469 -27.890625 "/></clipPath><clipPath id="a4bf20efbd"><path d="M 0 208 L 1440 208 L 1440 225 L 0 225 Z M 0 208 "/></clipPath><clipPath id="92643ed9e1"><path d="M -132.980469 -27.890625 L 1489.167969 44.195312 L 1470.390625 466.777344 L -151.761719 394.695312 Z M -132.980469 -27.890625 "/></clipPath><clipPath id="1ab1ab8f8b"><path d="M -132.980469 -27.890625 L 1489.167969 44.195312 L 1470.390625 466.777344 L -151.761719 394.695312 Z M -132.980469 -27.890625 "/></clipPath><clipPath id="0c796266a4"><rect x="0" width="1440" y="0" height="225"/></clipPath></defs><g id="0db9263657"><rect x="0" width="1440" y="0" height="225" style="fill:#ffffff;fill-opacity:1;stroke:none;"/><rect x="0" width="1440" y="0" height="225" style="fill:#ffffff;fill-opacity:1;stroke:none;"/><g mask="url(#93f18a608d)" transform="matrix(1,0,0,1,0,15)"><g clip-path="url(#8b5ae9dae0)"><g clip-rule="nonzero" clip-path="url(#2e3d89e67a)"><g clip-rule="nonzero" clip-path="url(#f2d457dcac)"><g clip-rule="nonzero" clip-path="url(#2b66c42256)"><path style=" stroke:none;fill-rule:evenodd;fill:#5596b6;fill-opacity:1;" d="M -183.65625 141.929688 L -89.265625 371.105469 L 943.085938 434.132812 L 1523.894531 293.878906 L 1532.765625 94.246094 C 1523.878906 92.871094 1514.910156 91.824219 1505.847656 91.164062 C 1438.625 86.253906 1366.230469 102.304688 1289.050781 121.996094 C 1211.871094 141.691406 1129.910156 165.019531 1063.628906 156.296875 C 997.347656 147.574219 946.746094 106.785156 871.773438 76.863281 C 796.800781 46.9375 697.449219 27.882812 613.382812 46.496094 C 529.308594 65.113281 460.527344 121.40625 391.953125 146.875 C 323.382812 172.347656 255.023438 166.996094 186.359375 151.230469 C 117.691406 135.457031 48.71875 109.273438 -22.1875 109.203125 C -75.203125 109.148438 -129.289062 123.699219 -183.65625 141.929688 Z M -183.65625 141.929688 "/></g></g></g><g clip-rule="nonzero" clip-path="url(#82f68d5c86)"><g clip-rule="nonzero" clip-path="url(#440fd69ae0)"><g clip-rule="nonzero" clip-path="url(#bee5347021)"><path style=" stroke:none;fill-rule:evenodd;fill:#e4f2f8;fill-opacity:1;" d="M 1523.695312 298.433594 L 1449.46875 455.957031 L 113.179688 429.027344 L -192.527344 341.566406 L -181.734375 98.6875 C -172.753906 98.109375 -163.730469 97.867188 -154.640625 98.011719 C -87.246094 99.078125 -16.566406 121.484375 58.558594 147.949219 C 133.6875 174.410156 213.257812 204.921875 280.058594 202.113281 C 346.851562 199.300781 400.871094 163.160156 478.195312 140.007812 C 555.53125 116.855469 656.175781 106.683594 738.269531 132.6875 C 820.355469 158.683594 883.878906 220.855469 949.914062 252.308594 C 1015.957031 283.765625 1084.519531 284.496094 1154.3125 274.878906 C 1224.105469 265.265625 1295.132812 245.296875 1365.765625 251.519531 C 1418.578125 256.15625 1471.164062 275.449219 1523.695312 298.433594 Z M 1523.695312 298.433594 "/></g></g></g></g><mask id="93f18a608d"><g filter="url(#603fa8c07f)"><rect x="0" width="1440" y="0" height="225" style="fill:#000000;fill-opacity:0.97;stroke:none;"/></g></mask></g><g mask="url(#151c833ddc)" transform="matrix(1,0,0,1,0,17)"><g clip-path="url(#473bbefb06)"><g clip-rule="nonzero" clip-path="url(#50c83688e5)"><g clip-rule="nonzero" clip-path="url(#aa99db6ef9)"><g clip-rule="nonzero" clip-path="url(#5d6886ae5c)"><path style=" stroke:none;fill-rule:evenodd;fill:#e4f2f8;fill-opacity:1;" d="M -109.070312 130.027344 L -22.828125 339.425781 L 920.441406 397.015625 L 1451.132812 268.863281 L 1459.238281 86.457031 C 1451.117188 85.199219 1442.917969 84.246094 1434.640625 83.640625 C 1373.21875 79.152344 1307.070312 93.820312 1236.550781 111.8125 C 1166.03125 129.808594 1091.140625 151.125 1030.582031 143.15625 C 970.019531 135.183594 923.785156 97.914062 855.28125 70.574219 C 786.777344 43.230469 696 25.820312 619.1875 42.828125 C 542.367188 59.839844 479.523438 111.273438 416.867188 134.542969 C 354.210938 157.820312 291.753906 152.929688 229.011719 138.523438 C 166.273438 124.113281 103.25 100.1875 38.460938 100.121094 C -9.980469 100.074219 -59.398438 113.371094 -109.070312 130.027344 Z M -109.070312 130.027344 "/></g></g></g><g clip-rule="nonzero" clip-path="url(#040c43eadf)"><g clip-rule="nonzero" clip-path="url(#b0c85279ab)"><g clip-rule="nonzero" clip-path="url(#60c8639bbd)"><path style=" stroke:none;fill-rule:evenodd;fill:#5596b6;fill-opacity:1;" d="M 1450.945312 273.027344 L 1383.128906 416.953125 L 162.148438 392.347656 L -117.179688 312.4375 L -107.316406 90.515625 C -99.113281 89.988281 -90.867188 89.765625 -82.5625 89.898438 C -20.984375 90.871094 43.597656 111.347656 112.242188 135.527344 C 180.886719 159.703125 253.589844 187.582031 314.625 185.015625 C 375.65625 182.445312 425.011719 149.425781 495.667969 128.269531 C 566.328125 107.117188 658.289062 97.820312 733.296875 121.578125 C 808.300781 145.332031 866.339844 202.140625 926.679688 230.878906 C 987.023438 259.621094 1049.667969 260.289062 1113.441406 251.5 C 1177.210938 242.71875 1242.109375 224.472656 1306.644531 230.160156 C 1354.898438 234.398438 1402.953125 252.023438 1450.945312 273.027344 Z M 1450.945312 273.027344 "/></g></g></g></g><mask id="151c833ddc"><g filter="url(#603fa8c07f)"><rect x="0" width="1440" y="0" height="225" style="fill:#000000;fill-opacity:0.679;stroke:none;"/></g></mask></g><g mask="url(#5a7e1753bd)" transform="matrix(1,0,0,1,0,150)"><g clip-path="url(#0ff348d58f)"><g clip-rule="nonzero" clip-path="url(#1d6afff707)"><g clip-rule="nonzero" clip-path="url(#9a0a394aa5)"><g clip-rule="nonzero" clip-path="url(#df6d53b82a)"><path style=" stroke:none;fill-rule:evenodd;fill:#e4f2f8;fill-opacity:1;" d="M -114.964844 129.632812 L -28.722656 339.027344 L 914.546875 396.621094 L 1445.238281 268.46875 L 1453.34375 86.0625 C 1445.222656 84.804688 1437.027344 83.851562 1428.746094 83.246094 C 1367.324219 78.757812 1301.179688 93.425781 1230.660156 111.417969 C 1160.140625 129.414062 1085.25 150.730469 1024.6875 142.757812 C 964.125 134.789062 917.894531 97.519531 849.386719 70.179688 C 780.882812 42.835938 690.109375 25.425781 613.292969 42.429688 C 536.476562 59.445312 473.628906 110.878906 410.972656 134.148438 C 348.320312 157.421875 285.859375 152.535156 223.121094 138.128906 C 160.378906 123.71875 97.355469 99.792969 32.570312 99.726562 C -15.871094 99.679688 -65.292969 112.972656 -114.964844 129.632812 Z M -114.964844 129.632812 "/></g></g></g></g><mask id="5a7e1753bd"><g filter="url(#603fa8c07f)"><rect x="0" width="1440" y="0" height="225" style="fill:#000000;fill-opacity:0.97;stroke:none;"/></g></mask></g><g mask="url(#e72e0534d5)" transform="matrix(1,0,0,1,0,-0.000000000000008531)"><g clip-path="url(#0c796266a4)"><g clip-rule="nonzero" clip-path="url(#87fffe071b)"><g clip-rule="nonzero" clip-path="url(#bc9189de78)"><g clip-rule="nonzero" clip-path="url(#f5a441d893)"><path style=" stroke:none;fill-rule:evenodd;fill:#e4f2f8;fill-opacity:1;" d="M -138.933594 116.992188 L -49.496094 334.140625 L 928.703125 393.867188 L 1479.046875 260.96875 L 1487.453125 71.808594 C 1479.03125 70.503906 1470.53125 69.515625 1461.945312 68.886719 C 1398.25 64.234375 1329.652344 79.441406 1256.523438 98.101562 C 1183.390625 116.765625 1105.726562 138.871094 1042.921875 130.605469 C 980.117188 122.339844 932.171875 83.6875 861.132812 55.335938 C 790.089844 26.980469 695.953125 8.925781 616.296875 26.5625 C 536.632812 44.203125 471.457031 97.542969 406.484375 121.675781 C 341.507812 145.8125 276.734375 140.742188 211.671875 125.800781 C 146.609375 110.859375 81.253906 86.046875 14.066406 85.980469 C -36.167969 85.929688 -87.417969 99.714844 -138.933594 116.992188 Z M -138.933594 116.992188 "/></g></g></g><g clip-rule="nonzero" clip-path="url(#25436d0ef1)"><g clip-rule="nonzero" clip-path="url(#bffeef2bc8)"><g clip-rule="nonzero" clip-path="url(#64d03b50f6)"><path style=" stroke:none;fill-rule:evenodd;fill:#ffffff;fill-opacity:1;" d="M 1478.855469 265.285156 L 1408.523438 414.542969 L 142.332031 389.027344 L -147.335938 306.15625 L -137.109375 76.019531 C -128.601562 75.46875 -120.054688 75.238281 -111.4375 75.378906 C -47.582031 76.382812 19.390625 97.617188 90.578125 122.695312 C 161.765625 147.765625 237.160156 176.679688 300.457031 174.015625 C 363.746094 171.351562 414.929688 137.109375 488.203125 115.171875 C 561.476562 93.230469 656.84375 83.59375 734.628906 108.230469 C 812.410156 132.863281 872.601562 191.773438 935.175781 221.578125 C 997.753906 251.382812 1062.71875 252.078125 1128.851562 242.964844 C 1194.984375 233.855469 1262.285156 214.933594 1329.210938 220.832031 C 1379.253906 225.226562 1429.082031 243.503906 1478.855469 265.285156 Z M 1478.855469 265.285156 "/></g></g></g><g clip-rule="nonzero" clip-path="url(#a4bf20efbd)"><g clip-rule="nonzero" clip-path="url(#92643ed9e1)"><g clip-rule="nonzero" clip-path="url(#1ab1ab8f8b)"><path style=" stroke:none;fill-rule:evenodd;fill:#ffffff;fill-opacity:1;" d="M -147.335938 306.15625 L -151.265625 394.558594 L 1469.910156 466.597656 L 1479.046875 260.96875 C 1470.625 259.667969 1462.125 258.679688 1453.539062 258.054688 C 1389.84375 253.390625 1321.246094 268.601562 1248.117188 287.265625 C 1174.984375 305.921875 1097.320312 328.035156 1034.515625 319.769531 C 971.710938 311.5 923.765625 272.851562 852.726562 244.496094 C 781.683594 216.144531 687.546875 198.082031 607.890625 215.726562 C 528.226562 233.363281 463.050781 286.703125 398.078125 310.832031 C 333.101562 334.96875 268.328125 329.898438 203.265625 314.957031 C 138.203125 300.015625 72.847656 275.199219 5.660156 275.136719 C -44.574219 275.09375 -95.824219 288.875 -147.335938 306.15625 Z M -147.335938 306.15625 "/></g></g></g></g><mask id="e72e0534d5"><g filter="url(#603fa8c07f)"><rect x="0" width="1440" y="0" height="225" style="fill:#000000;fill-opacity:0.485;stroke:none;"/></g></mask></g></g></svg>