<svg xmlns="http://www.w3.org/2000/svg" xmlns:xlink="http://www.w3.org/1999/xlink" width="500" zoomAndPan="magnify" viewBox="0 0 375 374.999991" height="500" preserveAspectRatio="xMidYMid meet" version="1.2"><defs><clipPath id="1aa0b12d54"><path d="M 168.328125 116.929688 L 333.328125 116.929688 L 333.328125 170.757812 L 168.328125 170.757812 Z M 168.328125 116.929688 "/></clipPath></defs><g id="82fdf1719e"><g clip-rule="nonzero" clip-path="url(#1aa0b12d54)"><path style=" stroke:none;fill-rule:nonzero;fill:#b27021;fill-opacity:1;" d="M 231.507812 145.4375 C 231.296875 142.851562 229.359375 140.5625 226.976562 139.472656 C 224.449219 138.316406 221.527344 138.332031 218.800781 138.863281 C 209.613281 140.652344 202.535156 147.6875 195.144531 153.4375 C 187.757812 159.183594 178.050781 164.046875 169.320312 160.667969 C 177.140625 161.382812 185.328125 159.886719 191.816406 155.464844 C 195.851562 152.710938 199.089844 148.957031 202.902344 145.902344 C 206.53125 142.992188 210.683594 140.730469 215.101562 139.261719 C 218.566406 138.109375 222.339844 137.445312 225.863281 138.40625 C 229.386719 139.367188 232.5625 142.277344 232.921875 145.910156 C 234.628906 143.886719 234.664062 140.808594 233.511719 138.425781 C 232.359375 136.042969 230.21875 134.273438 227.921875 132.957031 C 221.835938 129.46875 214.214844 128.777344 207.601562 131.117188 C 200.628906 133.585938 195.199219 139.015625 189.109375 143.210938 C 183.019531 147.410156 175.074219 150.453125 168.328125 147.425781 C 175.359375 148.511719 182.777344 146.871094 188.699219 142.921875 C 192.597656 140.320312 195.816406 136.804688 199.703125 134.179688 C 205.773438 130.085938 213.40625 128.371094 220.648438 129.484375 C 225.113281 130.167969 229.601562 132.035156 232.375 135.597656 C 235.148438 139.164062 235.707031 144.648438 232.832031 148.128906 C 230.320312 145.339844 226.628906 142.289062 223.269531 143.957031 C 220.917969 145.125 220.121094 148.34375 221.082031 150.785156 C 222.046875 153.226562 224.355469 154.917969 226.800781 155.867188 C 231.226562 157.582031 236.421875 157.1875 240.535156 154.816406 C 245.339844 152.042969 248.328125 147.042969 251.316406 142.371094 C 256.050781 134.972656 261.453125 127.742188 268.792969 122.914062 C 276.835938 117.617188 286.960938 115.855469 296.390625 117.550781 C 305.394531 119.171875 317.074219 124.320312 314.460938 135.550781 C 313.488281 139.722656 310.277344 143.300781 306.230469 144.71875 C 306.761719 140.328125 302.449219 136.152344 298.039062 136.496094 C 293.628906 136.839844 290.082031 141.261719 290.351562 145.679688 C 290.621094 150.09375 294.367188 153.9375 298.722656 154.691406 C 305.742188 155.90625 311.824219 150.28125 318.15625 147.027344 C 322.816406 144.632812 328.089844 143.441406 333.324219 143.609375 C 327.929688 144.085938 322.628906 145.65625 317.84375 148.199219 C 311.429688 151.605469 304.917969 156.941406 297.832031 155.335938 C 293.445312 154.34375 289.832031 150.34375 289.554688 145.851562 C 289.277344 141.359375 292.554688 136.832031 296.964844 135.9375 C 301.375 135.042969 306.285156 138.140625 307.144531 142.558594 C 308.953125 140.839844 309.332031 137.957031 308.492188 135.605469 C 307.652344 133.253906 305.78125 131.394531 303.679688 130.046875 C 297.785156 126.265625 289.996094 126.207031 283.492188 128.804688 C 276.992188 131.40625 271.667969 136.378906 267.5 142.007812 C 260.957031 150.835938 256.480469 161.859375 247.03125 167.464844 C 238.167969 172.722656 226.023438 171.558594 218.175781 164.878906 C 222.683594 167.777344 227.90625 169.554688 233.246094 170 C 237.304688 170.339844 241.507812 169.894531 245.152344 168.082031 C 249.21875 166.0625 252.300781 162.507812 255.011719 158.867188 C 259.394531 152.984375 263.125 146.628906 267.71875 140.914062 C 272.3125 135.195312 277.953125 130.039062 284.859375 127.570312 C 291.765625 125.101562 300.101562 125.761719 305.613281 130.601562 C 308.921875 133.507812 310.949219 138.714844 308.429688 142.328125 C 314.058594 139.992188 315.367188 131.863281 312.140625 126.691406 C 308.914062 121.519531 302.683594 118.988281 296.65625 118.082031 C 282.730469 115.988281 267.734375 121.445312 258.960938 132.460938 C 255.445312 136.875 252.953125 142.007812 249.734375 146.644531 C 246.515625 151.28125 242.292969 155.585938 236.859375 157.113281 C 233.371094 158.09375 229.5625 157.839844 226.203125 156.484375 C 223.15625 155.257812 220.269531 152.792969 219.917969 149.527344 C 219.609375 146.699219 221.519531 143.789062 224.234375 142.941406 C 226.949219 142.09375 230.175781 143.40625 231.527344 145.910156 C 231.527344 145.75 231.523438 145.59375 231.507812 145.4375 "/></g><path style=" stroke:none;fill-rule:nonzero;fill:#b27021;fill-opacity:1;" d="M 287.25 161.425781 C 287.246094 161.386719 287.246094 161.34375 287.246094 161.300781 C 291.105469 163.695312 295.121094 165.941406 299.492188 167.167969 C 303.867188 168.390625 308.671875 168.523438 312.855469 166.753906 C 316.15625 165.355469 318.863281 162.890625 321.707031 160.710938 C 323.367188 159.4375 328.277344 155.574219 330.390625 156.722656 C 329.539062 157.574219 327.46875 157.957031 326.273438 158.609375 C 324.710938 159.464844 323.273438 160.523438 321.855469 161.589844 C 318.996094 163.746094 316.210938 166.125 312.859375 167.492188 C 308.875 169.117188 304.355469 169.136719 300.171875 168.125 C 295.988281 167.113281 292.101562 165.128906 288.453125 162.847656 C 287.90625 162.507812 287.300781 162.046875 287.25 161.425781 "/><g style="fill:#b27021;fill-opacity:1;"><g transform="translate(16.630436, 216.007171)"><path style="stroke:none" d="M 56.734375 18.96875 C 47.460938 18.96875 39.816406 17.71875 33.796875 15.21875 C 27.785156 12.71875 23.351562 9.273438 20.5 4.890625 C 17.644531 0.503906 16.21875 -4.4375 16.21875 -9.9375 C 16.21875 -16.257812 17.945312 -23.113281 21.40625 -30.5 C 24.875 -37.894531 29.875 -45.160156 36.40625 -52.296875 C 36.40625 -52.296875 36.453125 -52.347656 36.546875 -52.453125 C 33.390625 -53.578125 30.429688 -54.851562 27.671875 -56.28125 C 24.921875 -57.707031 22.476562 -59.335938 20.34375 -61.171875 C 17.894531 -63.210938 16.054688 -65.457031 14.828125 -67.90625 C 13.609375 -70.351562 13 -72.695312 13 -74.9375 C 13 -78.195312 14.222656 -80.972656 16.671875 -83.265625 C 19.117188 -85.566406 22.835938 -86.71875 27.828125 -86.71875 C 29.460938 -86.71875 31.195312 -86.585938 33.03125 -86.328125 C 34.863281 -86.078125 36.800781 -85.644531 38.84375 -85.03125 C 40.269531 -84.625 40.984375 -83.757812 40.984375 -82.4375 C 40.984375 -81.71875 40.597656 -81.023438 39.828125 -80.359375 C 39.066406 -79.703125 38.128906 -79.578125 37.015625 -79.984375 C 33.648438 -80.898438 30.742188 -81.359375 28.296875 -81.359375 C 25.234375 -81.359375 22.910156 -80.742188 21.328125 -79.515625 C 19.753906 -78.296875 18.96875 -76.769531 18.96875 -74.9375 C 18.96875 -72.1875 20.722656 -69.050781 24.234375 -65.53125 C 27.753906 -62.007812 33.238281 -59.078125 40.6875 -56.734375 C 46.800781 -62.753906 53.804688 -68.1875 61.703125 -73.03125 C 69.609375 -77.875 78.148438 -81.722656 87.328125 -84.578125 C 96.503906 -87.429688 106.085938 -88.859375 116.078125 -88.859375 C 125.765625 -88.859375 133.003906 -87.222656 137.796875 -83.953125 C 142.585938 -80.691406 144.984375 -76.921875 144.984375 -72.640625 C 144.984375 -68.566406 142.867188 -64.460938 138.640625 -60.328125 C 134.410156 -56.203125 128.113281 -53.066406 119.75 -50.921875 C 114.445312 -49.597656 108.25 -48.503906 101.15625 -47.640625 C 94.070312 -46.773438 86.757812 -46.34375 79.21875 -46.34375 C 72.894531 -46.34375 66.597656 -46.671875 60.328125 -47.328125 C 54.054688 -47.992188 48.117188 -49.09375 42.515625 -50.625 C 36.296875 -44 31.375 -37.140625 27.75 -30.046875 C 24.132812 -22.960938 22.328125 -16.363281 22.328125 -10.25 C 22.328125 -3.414062 24.976562 2.289062 30.28125 6.875 C 35.582031 11.46875 44.25 13.765625 56.28125 13.765625 C 57.8125 13.765625 59.441406 13.6875 61.171875 13.53125 C 62.910156 13.382812 64.695312 13.257812 66.53125 13.15625 C 72.851562 12.4375 79.65625 10.675781 86.9375 7.875 C 94.226562 5.070312 101.46875 1.300781 108.65625 -3.4375 C 115.84375 -8.175781 122.445312 -13.65625 128.46875 -19.875 C 129.175781 -20.59375 129.890625 -20.953125 130.609375 -20.953125 C 131.316406 -20.953125 131.898438 -20.695312 132.359375 -20.1875 C 132.828125 -19.675781 133.0625 -19.066406 133.0625 -18.359375 C 133.0625 -17.640625 132.753906 -16.972656 132.140625 -16.359375 C 126.328125 -9.835938 119.625 -4.054688 112.03125 0.984375 C 104.4375 6.035156 96.710938 10.066406 88.859375 13.078125 C 81.003906 16.085938 73.660156 17.894531 66.828125 18.5 C 63.367188 18.8125 60.003906 18.96875 56.734375 18.96875 Z M 46.953125 -54.90625 C 51.847656 -53.882812 56.921875 -53.117188 62.171875 -52.609375 C 67.421875 -52.097656 72.695312 -51.84375 78 -51.84375 C 86.15625 -51.84375 93.828125 -52.300781 101.015625 -53.21875 C 108.203125 -54.132812 113.835938 -55.15625 117.921875 -56.28125 C 125.148438 -58.113281 130.472656 -60.457031 133.890625 -63.3125 C 137.304688 -66.164062 139.015625 -68.972656 139.015625 -71.734375 C 139.015625 -74.890625 137.023438 -77.613281 133.046875 -79.90625 C 129.078125 -82.195312 123.421875 -83.34375 116.078125 -83.34375 C 107.003906 -83.34375 98.285156 -82.09375 89.921875 -79.59375 C 81.566406 -77.101562 73.742188 -73.71875 66.453125 -69.4375 C 59.160156 -65.15625 52.660156 -60.3125 46.953125 -54.90625 Z M 46.953125 -54.90625 "/></g></g><g style="fill:#b27021;fill-opacity:1;"><g transform="translate(142.643623, 211.249688)"><path style="stroke:none" d="M 9.96875 0.65625 C 8.5 0.65625 7.195312 0.300781 6.0625 -0.40625 C 4.9375 -1.113281 4.050781 -2.1875 3.40625 -3.625 C 2.757812 -5.070312 2.4375 -6.890625 2.4375 -9.078125 C 2.4375 -10.421875 2.554688 -11.660156 2.796875 -12.796875 C 3.046875 -13.929688 3.414062 -14.945312 3.90625 -15.84375 C 4.394531 -16.75 4.984375 -17.507812 5.671875 -18.125 C 6.367188 -18.75 7.171875 -19.226562 8.078125 -19.5625 C 8.984375 -19.894531 9.976562 -20.0625 11.0625 -20.0625 C 11.882812 -20.0625 12.734375 -19.925781 13.609375 -19.65625 C 14.484375 -19.382812 15.304688 -19.03125 16.078125 -18.59375 L 16.078125 -18.78125 C 16.078125 -19.164062 16.21875 -19.445312 16.5 -19.625 C 16.789062 -19.8125 17.21875 -19.90625 17.78125 -19.90625 C 18.34375 -19.90625 18.757812 -19.820312 19.03125 -19.65625 C 19.300781 -19.488281 19.4375 -19.222656 19.4375 -18.859375 L 19.4375 -3.71875 C 19.4375 -3.375 19.488281 -3.09375 19.59375 -2.875 C 19.695312 -2.65625 19.835938 -2.492188 20.015625 -2.390625 C 20.203125 -2.285156 20.410156 -2.234375 20.640625 -2.234375 C 20.898438 -2.234375 21.113281 -2.265625 21.28125 -2.328125 C 21.445312 -2.398438 21.613281 -2.5 21.78125 -2.625 C 21.945312 -2.757812 22.144531 -2.914062 22.375 -3.09375 C 22.5625 -3.25 22.769531 -3.289062 23 -3.21875 C 23.226562 -3.15625 23.460938 -3.023438 23.703125 -2.828125 C 23.929688 -2.566406 24.054688 -2.289062 24.078125 -2 C 24.109375 -1.71875 24.054688 -1.476562 23.921875 -1.28125 C 23.640625 -0.863281 23.28125 -0.515625 22.84375 -0.234375 C 22.40625 0.046875 21.9375 0.265625 21.4375 0.421875 C 20.9375 0.578125 20.425781 0.65625 19.90625 0.65625 C 19.3125 0.65625 18.796875 0.585938 18.359375 0.453125 C 17.921875 0.328125 17.546875 0.128906 17.234375 -0.140625 C 16.929688 -0.410156 16.695312 -0.738281 16.53125 -1.125 C 16.363281 -1.507812 16.238281 -1.945312 16.15625 -2.4375 C 16.15625 -2.457031 16.140625 -2.515625 16.109375 -2.609375 C 16.085938 -2.703125 16.078125 -2.800781 16.078125 -2.90625 C 15.484375 -1.945312 14.84375 -1.207031 14.15625 -0.6875 C 13.476562 -0.175781 12.78125 0.171875 12.0625 0.359375 C 11.34375 0.554688 10.644531 0.65625 9.96875 0.65625 Z M 5.84375 -9.234375 C 5.84375 -7.816406 6.007812 -6.597656 6.34375 -5.578125 C 6.675781 -4.566406 7.179688 -3.789062 7.859375 -3.25 C 8.546875 -2.707031 9.40625 -2.4375 10.4375 -2.4375 C 11.1875 -2.4375 11.898438 -2.5625 12.578125 -2.8125 C 13.265625 -3.070312 13.90625 -3.5 14.5 -4.09375 C 15.09375 -4.6875 15.617188 -5.460938 16.078125 -6.421875 L 16.078125 -15.765625 C 15.273438 -16.253906 14.5 -16.582031 13.75 -16.75 C 13.007812 -16.925781 12.226562 -17.015625 11.40625 -17.015625 C 10.738281 -17.015625 10.117188 -16.910156 9.546875 -16.703125 C 8.984375 -16.492188 8.46875 -16.179688 8 -15.765625 C 7.539062 -15.359375 7.148438 -14.84375 6.828125 -14.21875 C 6.503906 -13.601562 6.257812 -12.882812 6.09375 -12.0625 C 5.925781 -11.238281 5.84375 -10.296875 5.84375 -9.234375 Z M 5.84375 -9.234375 "/></g></g><g style="fill:#b27021;fill-opacity:1;"><g transform="translate(166.682978, 211.249688)"><path style="stroke:none" d="M 5.53125 0.578125 C 4.957031 0.578125 4.535156 0.492188 4.265625 0.328125 C 3.992188 0.160156 3.859375 -0.0859375 3.859375 -0.421875 L 3.859375 -35.828125 C 3.859375 -36.171875 3.992188 -36.425781 4.265625 -36.59375 C 4.535156 -36.757812 4.957031 -36.84375 5.53125 -36.84375 C 6.070312 -36.84375 6.484375 -36.75 6.765625 -36.5625 C 7.046875 -36.382812 7.1875 -36.101562 7.1875 -35.71875 L 7.1875 -16.859375 C 7.8125 -17.734375 8.457031 -18.394531 9.125 -18.84375 C 9.789062 -19.289062 10.460938 -19.601562 11.140625 -19.78125 C 11.828125 -19.96875 12.492188 -20.0625 13.140625 -20.0625 C 15.359375 -20.0625 17.171875 -19.253906 18.578125 -17.640625 C 19.984375 -16.035156 20.6875 -13.582031 20.6875 -10.28125 C 20.6875 -8.9375 20.554688 -7.695312 20.296875 -6.5625 C 20.035156 -5.4375 19.660156 -4.425781 19.171875 -3.53125 C 18.679688 -2.644531 18.078125 -1.890625 17.359375 -1.265625 C 16.640625 -0.648438 15.804688 -0.175781 14.859375 0.15625 C 13.921875 0.488281 12.882812 0.65625 11.75 0.65625 C 10.894531 0.65625 10.085938 0.550781 9.328125 0.34375 C 8.566406 0.132812 7.851562 -0.171875 7.1875 -0.578125 L 7.1875 -0.421875 C 7.1875 -0.0859375 7.046875 0.160156 6.765625 0.328125 C 6.484375 0.492188 6.070312 0.578125 5.53125 0.578125 Z M 7.1875 -3.515625 C 7.957031 -3.078125 8.71875 -2.753906 9.46875 -2.546875 C 10.21875 -2.335938 10.976562 -2.234375 11.75 -2.234375 C 12.414062 -2.234375 13.03125 -2.34375 13.59375 -2.5625 C 14.164062 -2.789062 14.675781 -3.113281 15.125 -3.53125 C 15.582031 -3.957031 15.960938 -4.484375 16.265625 -5.109375 C 16.578125 -5.742188 16.816406 -6.488281 16.984375 -7.34375 C 17.148438 -8.195312 17.234375 -9.140625 17.234375 -10.171875 C 17.234375 -11.585938 17.066406 -12.800781 16.734375 -13.8125 C 16.398438 -14.832031 15.894531 -15.613281 15.21875 -16.15625 C 14.550781 -16.695312 13.703125 -16.96875 12.671875 -16.96875 C 11.984375 -16.96875 11.304688 -16.851562 10.640625 -16.625 C 9.984375 -16.394531 9.363281 -16.019531 8.78125 -15.5 C 8.207031 -14.988281 7.675781 -14.304688 7.1875 -13.453125 Z M 7.1875 -3.515625 "/></g></g><g style="fill:#b27021;fill-opacity:1;"><g transform="translate(189.794766, 211.249688)"><path style="stroke:none" d="M 11.328125 0.734375 C 9.285156 0.734375 7.609375 0.296875 6.296875 -0.578125 C 4.984375 -1.453125 4.007812 -2.609375 3.375 -4.046875 C 2.75 -5.492188 2.4375 -7.082031 2.4375 -8.8125 C 2.4375 -10.539062 2.671875 -12.09375 3.140625 -13.46875 C 3.617188 -14.851562 4.296875 -16.035156 5.171875 -17.015625 C 6.054688 -17.992188 7.097656 -18.742188 8.296875 -19.265625 C 9.492188 -19.796875 10.800781 -20.0625 12.21875 -20.0625 C 13.476562 -20.0625 14.578125 -19.875 15.515625 -19.5 C 16.460938 -19.125 17.195312 -18.554688 17.71875 -17.796875 C 18.25 -17.035156 18.515625 -16.078125 18.515625 -14.921875 C 18.515625 -13.941406 18.300781 -13.050781 17.875 -12.25 C 17.445312 -11.457031 16.847656 -10.753906 16.078125 -10.140625 C 15.304688 -9.535156 14.390625 -9.035156 13.328125 -8.640625 C 12.273438 -8.242188 11.09375 -7.941406 9.78125 -7.734375 C 8.46875 -7.523438 7.078125 -7.410156 5.609375 -7.390625 L 5.609375 -10.09375 C 6.453125 -10.09375 7.316406 -10.148438 8.203125 -10.265625 C 9.097656 -10.378906 9.957031 -10.550781 10.78125 -10.78125 C 11.601562 -11.019531 12.335938 -11.320312 12.984375 -11.6875 C 13.628906 -12.0625 14.140625 -12.492188 14.515625 -12.984375 C 14.890625 -13.472656 15.078125 -14.03125 15.078125 -14.65625 C 15.078125 -15.476562 14.796875 -16.066406 14.234375 -16.421875 C 13.679688 -16.785156 12.941406 -16.96875 12.015625 -16.96875 C 11.171875 -16.96875 10.378906 -16.800781 9.640625 -16.46875 C 8.910156 -16.132812 8.253906 -15.640625 7.671875 -14.984375 C 7.085938 -14.328125 6.632812 -13.53125 6.3125 -12.59375 C 6 -11.664062 5.84375 -10.613281 5.84375 -9.4375 C 5.84375 -8.019531 6.066406 -6.78125 6.515625 -5.71875 C 6.960938 -4.664062 7.597656 -3.84375 8.421875 -3.25 C 9.242188 -2.65625 10.238281 -2.359375 11.40625 -2.359375 C 12.175781 -2.359375 12.832031 -2.453125 13.375 -2.640625 C 13.914062 -2.835938 14.421875 -3.132812 14.890625 -3.53125 C 15.367188 -3.9375 15.894531 -4.421875 16.46875 -4.984375 C 16.851562 -5.367188 17.207031 -5.5625 17.53125 -5.5625 C 17.851562 -5.5625 18.195312 -5.421875 18.5625 -5.140625 C 18.914062 -4.859375 19.128906 -4.554688 19.203125 -4.234375 C 19.285156 -3.910156 19.195312 -3.582031 18.9375 -3.25 C 18.289062 -2.269531 17.53125 -1.488281 16.65625 -0.90625 C 15.78125 -0.320312 14.882812 0.09375 13.96875 0.34375 C 13.0625 0.601562 12.179688 0.734375 11.328125 0.734375 Z M 11.328125 0.734375 "/></g></g><g style="fill:#b27021;fill-opacity:1;"><g transform="translate(210.123866, 211.249688)"><path style="stroke:none" d="M 7.5 0.65625 C 6.15625 0.65625 5.179688 0.304688 4.578125 -0.390625 C 3.972656 -1.085938 3.671875 -2.066406 3.671875 -3.328125 L 3.671875 -35.828125 C 3.671875 -36.171875 3.804688 -36.425781 4.078125 -36.59375 C 4.347656 -36.757812 4.753906 -36.84375 5.296875 -36.84375 C 5.859375 -36.84375 6.28125 -36.757812 6.5625 -36.59375 C 6.851562 -36.425781 7 -36.171875 7 -35.828125 L 7 -3.71875 C 7 -3.195312 7.113281 -2.816406 7.34375 -2.578125 C 7.570312 -2.347656 7.851562 -2.234375 8.1875 -2.234375 C 8.476562 -2.234375 8.71875 -2.269531 8.90625 -2.34375 C 9.101562 -2.425781 9.289062 -2.539062 9.46875 -2.6875 C 9.644531 -2.832031 9.828125 -2.96875 10.015625 -3.09375 C 10.222656 -3.25 10.441406 -3.289062 10.671875 -3.21875 C 10.898438 -3.15625 11.128906 -2.984375 11.359375 -2.703125 C 11.492188 -2.523438 11.59375 -2.304688 11.65625 -2.046875 C 11.71875 -1.785156 11.6875 -1.554688 11.5625 -1.359375 C 11.28125 -0.921875 10.910156 -0.550781 10.453125 -0.25 C 10.003906 0.0390625 9.519531 0.265625 9 0.421875 C 8.488281 0.578125 7.988281 0.65625 7.5 0.65625 Z M 7.5 0.65625 "/></g></g><g style="fill:#b27021;fill-opacity:1;"><g transform="translate(221.679766, 211.249688)"><path style="stroke:none" d="M 11.328125 0.734375 C 9.285156 0.734375 7.609375 0.296875 6.296875 -0.578125 C 4.984375 -1.453125 4.007812 -2.609375 3.375 -4.046875 C 2.75 -5.492188 2.4375 -7.082031 2.4375 -8.8125 C 2.4375 -10.539062 2.671875 -12.09375 3.140625 -13.46875 C 3.617188 -14.851562 4.296875 -16.035156 5.171875 -17.015625 C 6.054688 -17.992188 7.097656 -18.742188 8.296875 -19.265625 C 9.492188 -19.796875 10.800781 -20.0625 12.21875 -20.0625 C 13.476562 -20.0625 14.578125 -19.875 15.515625 -19.5 C 16.460938 -19.125 17.195312 -18.554688 17.71875 -17.796875 C 18.25 -17.035156 18.515625 -16.078125 18.515625 -14.921875 C 18.515625 -13.941406 18.300781 -13.050781 17.875 -12.25 C 17.445312 -11.457031 16.847656 -10.753906 16.078125 -10.140625 C 15.304688 -9.535156 14.390625 -9.035156 13.328125 -8.640625 C 12.273438 -8.242188 11.09375 -7.941406 9.78125 -7.734375 C 8.46875 -7.523438 7.078125 -7.410156 5.609375 -7.390625 L 5.609375 -10.09375 C 6.453125 -10.09375 7.316406 -10.148438 8.203125 -10.265625 C 9.097656 -10.378906 9.957031 -10.550781 10.78125 -10.78125 C 11.601562 -11.019531 12.335938 -11.320312 12.984375 -11.6875 C 13.628906 -12.0625 14.140625 -12.492188 14.515625 -12.984375 C 14.890625 -13.472656 15.078125 -14.03125 15.078125 -14.65625 C 15.078125 -15.476562 14.796875 -16.066406 14.234375 -16.421875 C 13.679688 -16.785156 12.941406 -16.96875 12.015625 -16.96875 C 11.171875 -16.96875 10.378906 -16.800781 9.640625 -16.46875 C 8.910156 -16.132812 8.253906 -15.640625 7.671875 -14.984375 C 7.085938 -14.328125 6.632812 -13.53125 6.3125 -12.59375 C 6 -11.664062 5.84375 -10.613281 5.84375 -9.4375 C 5.84375 -8.019531 6.066406 -6.78125 6.515625 -5.71875 C 6.960938 -4.664062 7.597656 -3.84375 8.421875 -3.25 C 9.242188 -2.65625 10.238281 -2.359375 11.40625 -2.359375 C 12.175781 -2.359375 12.832031 -2.453125 13.375 -2.640625 C 13.914062 -2.835938 14.421875 -3.132812 14.890625 -3.53125 C 15.367188 -3.9375 15.894531 -4.421875 16.46875 -4.984375 C 16.851562 -5.367188 17.207031 -5.5625 17.53125 -5.5625 C 17.851562 -5.5625 18.195312 -5.421875 18.5625 -5.140625 C 18.914062 -4.859375 19.128906 -4.554688 19.203125 -4.234375 C 19.285156 -3.910156 19.195312 -3.582031 18.9375 -3.25 C 18.289062 -2.269531 17.53125 -1.488281 16.65625 -0.90625 C 15.78125 -0.320312 14.882812 0.09375 13.96875 0.34375 C 13.0625 0.601562 12.179688 0.734375 11.328125 0.734375 Z M 11.328125 0.734375 "/></g></g><g style="fill:#b27021;fill-opacity:1;"><g transform="translate(242.008867, 211.249688)"><path style="stroke:none" d="M 7.453125 0.65625 C 6.117188 0.65625 5.148438 0.304688 4.546875 -0.390625 C 3.941406 -1.085938 3.640625 -2.066406 3.640625 -3.328125 L 3.640625 -18.90625 C 3.640625 -19.238281 3.773438 -19.488281 4.046875 -19.65625 C 4.316406 -19.820312 4.71875 -19.90625 5.25 -19.90625 C 5.820312 -19.90625 6.25 -19.820312 6.53125 -19.65625 C 6.8125 -19.488281 6.953125 -19.238281 6.953125 -18.90625 L 6.953125 -3.71875 C 6.953125 -3.195312 7.066406 -2.816406 7.296875 -2.578125 C 7.535156 -2.347656 7.820312 -2.234375 8.15625 -2.234375 C 8.4375 -2.234375 8.671875 -2.28125 8.859375 -2.375 C 9.054688 -2.46875 9.238281 -2.578125 9.40625 -2.703125 C 9.570312 -2.835938 9.757812 -2.976562 9.96875 -3.125 C 10.125 -3.257812 10.335938 -3.273438 10.609375 -3.171875 C 10.878906 -3.066406 11.09375 -2.910156 11.25 -2.703125 C 11.457031 -2.472656 11.570312 -2.226562 11.59375 -1.96875 C 11.625 -1.707031 11.5625 -1.476562 11.40625 -1.28125 C 11.125 -0.863281 10.769531 -0.515625 10.34375 -0.234375 C 9.914062 0.046875 9.445312 0.265625 8.9375 0.421875 C 8.4375 0.578125 7.941406 0.65625 7.453125 0.65625 Z M 5.328125 -25.859375 C 4.609375 -25.859375 4.0625 -26.054688 3.6875 -26.453125 C 3.3125 -26.859375 3.125 -27.457031 3.125 -28.25 C 3.125 -29.082031 3.3125 -29.703125 3.6875 -30.109375 C 4.0625 -30.523438 4.609375 -30.734375 5.328125 -30.734375 C 6.023438 -30.734375 6.550781 -30.523438 6.90625 -30.109375 C 7.269531 -29.703125 7.453125 -29.082031 7.453125 -28.25 C 7.484375 -27.457031 7.3125 -26.859375 6.9375 -26.453125 C 6.5625 -26.054688 6.023438 -25.859375 5.328125 -25.859375 Z M 5.328125 -25.859375 "/></g></g><g style="fill:#b27021;fill-opacity:1;"><g transform="translate(253.603413, 211.249688)"><path style="stroke:none" d="M 6.21875 0.578125 C 5.675781 0.578125 5.269531 0.492188 5 0.328125 C 4.726562 0.160156 4.59375 -0.0859375 4.59375 -0.421875 L 4.59375 -14.265625 C 4.59375 -15.347656 4.425781 -16.078125 4.09375 -16.453125 C 3.757812 -16.828125 3.296875 -17.015625 2.703125 -17.015625 C 2.265625 -17.015625 1.894531 -16.894531 1.59375 -16.65625 C 1.300781 -16.425781 1.070312 -16.09375 0.90625 -15.65625 C 0.738281 -15.21875 0.628906 -14.703125 0.578125 -14.109375 C 0.554688 -13.691406 0.441406 -13.382812 0.234375 -13.1875 C 0.0234375 -13 -0.304688 -12.90625 -0.765625 -12.90625 C -1.179688 -12.90625 -1.519531 -12.992188 -1.78125 -13.171875 C -2.039062 -13.359375 -2.15625 -13.785156 -2.125 -14.453125 C -2.070312 -15.566406 -1.84375 -16.53125 -1.4375 -17.34375 C -1.039062 -18.15625 -0.488281 -18.785156 0.21875 -19.234375 C 0.925781 -19.679688 1.753906 -19.90625 2.703125 -19.90625 C 3.398438 -19.90625 4.03125 -19.828125 4.59375 -19.671875 C 5.164062 -19.515625 5.65625 -19.269531 6.0625 -18.9375 C 6.476562 -18.601562 6.820312 -18.191406 7.09375 -17.703125 C 7.363281 -17.210938 7.5625 -16.632812 7.6875 -15.96875 L 7.734375 -15.765625 C 8.015625 -16.441406 8.347656 -17.039062 8.734375 -17.5625 C 9.117188 -18.09375 9.53125 -18.546875 9.96875 -18.921875 C 10.40625 -19.296875 10.863281 -19.578125 11.34375 -19.765625 C 11.820312 -19.960938 12.289062 -20.0625 12.75 -20.0625 C 13.113281 -20.0625 13.429688 -19.96875 13.703125 -19.78125 C 13.972656 -19.601562 14.109375 -19.207031 14.109375 -18.59375 C 14.109375 -17.875 14.175781 -17.269531 14.3125 -16.78125 C 14.457031 -16.289062 14.664062 -15.921875 14.9375 -15.671875 C 15.207031 -15.429688 15.523438 -15.3125 15.890625 -15.3125 C 16.535156 -15.3125 17.203125 -15.609375 17.890625 -16.203125 C 18.585938 -16.796875 19.257812 -17.453125 19.90625 -18.171875 C 20.132812 -18.429688 20.390625 -18.523438 20.671875 -18.453125 C 20.960938 -18.390625 21.226562 -18.226562 21.46875 -17.96875 C 21.71875 -17.71875 21.878906 -17.441406 21.953125 -17.140625 C 22.035156 -16.847656 21.984375 -16.597656 21.796875 -16.390625 C 20.953125 -15.359375 20.015625 -14.476562 18.984375 -13.75 C 17.953125 -13.03125 16.921875 -12.671875 15.890625 -12.671875 C 15.191406 -12.671875 14.539062 -12.828125 13.9375 -13.140625 C 13.332031 -13.453125 12.828125 -13.914062 12.421875 -14.53125 C 12.023438 -15.15625 11.765625 -15.90625 11.640625 -16.78125 C 11.253906 -16.625 10.882812 -16.378906 10.53125 -16.046875 C 10.1875 -15.710938 9.851562 -15.304688 9.53125 -14.828125 C 9.207031 -14.347656 8.910156 -13.804688 8.640625 -13.203125 C 8.367188 -12.597656 8.128906 -11.957031 7.921875 -11.28125 L 7.921875 -0.421875 C 7.921875 -0.0859375 7.78125 0.160156 7.5 0.328125 C 7.21875 0.492188 6.789062 0.578125 6.21875 0.578125 Z M 6.21875 0.578125 "/></g></g><g style="fill:#b27021;fill-opacity:1;"><g transform="translate(274.898726, 211.249688)"><path style="stroke:none" d="M 11.328125 0.734375 C 9.285156 0.734375 7.609375 0.296875 6.296875 -0.578125 C 4.984375 -1.453125 4.007812 -2.609375 3.375 -4.046875 C 2.75 -5.492188 2.4375 -7.082031 2.4375 -8.8125 C 2.4375 -10.539062 2.671875 -12.09375 3.140625 -13.46875 C 3.617188 -14.851562 4.296875 -16.035156 5.171875 -17.015625 C 6.054688 -17.992188 7.097656 -18.742188 8.296875 -19.265625 C 9.492188 -19.796875 10.800781 -20.0625 12.21875 -20.0625 C 13.476562 -20.0625 14.578125 -19.875 15.515625 -19.5 C 16.460938 -19.125 17.195312 -18.554688 17.71875 -17.796875 C 18.25 -17.035156 18.515625 -16.078125 18.515625 -14.921875 C 18.515625 -13.941406 18.300781 -13.050781 17.875 -12.25 C 17.445312 -11.457031 16.847656 -10.753906 16.078125 -10.140625 C 15.304688 -9.535156 14.390625 -9.035156 13.328125 -8.640625 C 12.273438 -8.242188 11.09375 -7.941406 9.78125 -7.734375 C 8.46875 -7.523438 7.078125 -7.410156 5.609375 -7.390625 L 5.609375 -10.09375 C 6.453125 -10.09375 7.316406 -10.148438 8.203125 -10.265625 C 9.097656 -10.378906 9.957031 -10.550781 10.78125 -10.78125 C 11.601562 -11.019531 12.335938 -11.320312 12.984375 -11.6875 C 13.628906 -12.0625 14.140625 -12.492188 14.515625 -12.984375 C 14.890625 -13.472656 15.078125 -14.03125 15.078125 -14.65625 C 15.078125 -15.476562 14.796875 -16.066406 14.234375 -16.421875 C 13.679688 -16.785156 12.941406 -16.96875 12.015625 -16.96875 C 11.171875 -16.96875 10.378906 -16.800781 9.640625 -16.46875 C 8.910156 -16.132812 8.253906 -15.640625 7.671875 -14.984375 C 7.085938 -14.328125 6.632812 -13.53125 6.3125 -12.59375 C 6 -11.664062 5.84375 -10.613281 5.84375 -9.4375 C 5.84375 -8.019531 6.066406 -6.78125 6.515625 -5.71875 C 6.960938 -4.664062 7.597656 -3.84375 8.421875 -3.25 C 9.242188 -2.65625 10.238281 -2.359375 11.40625 -2.359375 C 12.175781 -2.359375 12.832031 -2.453125 13.375 -2.640625 C 13.914062 -2.835938 14.421875 -3.132812 14.890625 -3.53125 C 15.367188 -3.9375 15.894531 -4.421875 16.46875 -4.984375 C 16.851562 -5.367188 17.207031 -5.5625 17.53125 -5.5625 C 17.851562 -5.5625 18.195312 -5.421875 18.5625 -5.140625 C 18.914062 -4.859375 19.128906 -4.554688 19.203125 -4.234375 C 19.285156 -3.910156 19.195312 -3.582031 18.9375 -3.25 C 18.289062 -2.269531 17.53125 -1.488281 16.65625 -0.90625 C 15.78125 -0.320312 14.882812 0.09375 13.96875 0.34375 C 13.0625 0.601562 12.179688 0.734375 11.328125 0.734375 Z M 11.328125 0.734375 "/></g></g><g style="fill:#b27021;fill-opacity:1;"><g transform="translate(295.227827, 211.249688)"><path style="stroke:none" d="M 7.453125 0.65625 C 6.117188 0.65625 5.148438 0.304688 4.546875 -0.390625 C 3.941406 -1.085938 3.640625 -2.066406 3.640625 -3.328125 L 3.640625 -18.90625 C 3.640625 -19.238281 3.773438 -19.488281 4.046875 -19.65625 C 4.316406 -19.820312 4.71875 -19.90625 5.25 -19.90625 C 5.820312 -19.90625 6.25 -19.820312 6.53125 -19.65625 C 6.8125 -19.488281 6.953125 -19.238281 6.953125 -18.90625 L 6.953125 -3.71875 C 6.953125 -3.195312 7.066406 -2.816406 7.296875 -2.578125 C 7.535156 -2.347656 7.820312 -2.234375 8.15625 -2.234375 C 8.4375 -2.234375 8.671875 -2.28125 8.859375 -2.375 C 9.054688 -2.46875 9.238281 -2.578125 9.40625 -2.703125 C 9.570312 -2.835938 9.757812 -2.976562 9.96875 -3.125 C 10.125 -3.257812 10.335938 -3.273438 10.609375 -3.171875 C 10.878906 -3.066406 11.09375 -2.910156 11.25 -2.703125 C 11.457031 -2.472656 11.570312 -2.226562 11.59375 -1.96875 C 11.625 -1.707031 11.5625 -1.476562 11.40625 -1.28125 C 11.125 -0.863281 10.769531 -0.515625 10.34375 -0.234375 C 9.914062 0.046875 9.445312 0.265625 8.9375 0.421875 C 8.4375 0.578125 7.941406 0.65625 7.453125 0.65625 Z M 5.328125 -25.859375 C 4.609375 -25.859375 4.0625 -26.054688 3.6875 -26.453125 C 3.3125 -26.859375 3.125 -27.457031 3.125 -28.25 C 3.125 -29.082031 3.3125 -29.703125 3.6875 -30.109375 C 4.0625 -30.523438 4.609375 -30.734375 5.328125 -30.734375 C 6.023438 -30.734375 6.550781 -30.523438 6.90625 -30.109375 C 7.269531 -29.703125 7.453125 -29.082031 7.453125 -28.25 C 7.484375 -27.457031 7.3125 -26.859375 6.9375 -26.453125 C 6.5625 -26.054688 6.023438 -25.859375 5.328125 -25.859375 Z M 5.328125 -25.859375 "/></g></g><g style="fill:#b27021;fill-opacity:1;"><g transform="translate(306.822373, 211.249688)"><path style="stroke:none" d="M 6.21875 0.578125 C 5.675781 0.578125 5.269531 0.492188 5 0.328125 C 4.726562 0.160156 4.59375 -0.0859375 4.59375 -0.421875 L 4.59375 -14.265625 C 4.59375 -15.347656 4.425781 -16.078125 4.09375 -16.453125 C 3.757812 -16.828125 3.296875 -17.015625 2.703125 -17.015625 C 2.265625 -17.015625 1.894531 -16.894531 1.59375 -16.65625 C 1.300781 -16.425781 1.070312 -16.09375 0.90625 -15.65625 C 0.738281 -15.21875 0.628906 -14.703125 0.578125 -14.109375 C 0.554688 -13.691406 0.441406 -13.382812 0.234375 -13.1875 C 0.0234375 -13 -0.304688 -12.90625 -0.765625 -12.90625 C -1.179688 -12.90625 -1.519531 -12.992188 -1.78125 -13.171875 C -2.039062 -13.359375 -2.15625 -13.785156 -2.125 -14.453125 C -2.070312 -15.566406 -1.84375 -16.53125 -1.4375 -17.34375 C -1.039062 -18.15625 -0.488281 -18.785156 0.21875 -19.234375 C 0.925781 -19.679688 1.753906 -19.90625 2.703125 -19.90625 C 3.398438 -19.90625 4.03125 -19.828125 4.59375 -19.671875 C 5.164062 -19.515625 5.65625 -19.269531 6.0625 -18.9375 C 6.476562 -18.601562 6.820312 -18.191406 7.09375 -17.703125 C 7.363281 -17.210938 7.5625 -16.632812 7.6875 -15.96875 L 7.734375 -15.765625 C 8.015625 -16.441406 8.347656 -17.039062 8.734375 -17.5625 C 9.117188 -18.09375 9.53125 -18.546875 9.96875 -18.921875 C 10.40625 -19.296875 10.863281 -19.578125 11.34375 -19.765625 C 11.820312 -19.960938 12.289062 -20.0625 12.75 -20.0625 C 13.113281 -20.0625 13.429688 -19.96875 13.703125 -19.78125 C 13.972656 -19.601562 14.109375 -19.207031 14.109375 -18.59375 C 14.109375 -17.875 14.175781 -17.269531 14.3125 -16.78125 C 14.457031 -16.289062 14.664062 -15.921875 14.9375 -15.671875 C 15.207031 -15.429688 15.523438 -15.3125 15.890625 -15.3125 C 16.535156 -15.3125 17.203125 -15.609375 17.890625 -16.203125 C 18.585938 -16.796875 19.257812 -17.453125 19.90625 -18.171875 C 20.132812 -18.429688 20.390625 -18.523438 20.671875 -18.453125 C 20.960938 -18.390625 21.226562 -18.226562 21.46875 -17.96875 C 21.71875 -17.71875 21.878906 -17.441406 21.953125 -17.140625 C 22.035156 -16.847656 21.984375 -16.597656 21.796875 -16.390625 C 20.953125 -15.359375 20.015625 -14.476562 18.984375 -13.75 C 17.953125 -13.03125 16.921875 -12.671875 15.890625 -12.671875 C 15.191406 -12.671875 14.539062 -12.828125 13.9375 -13.140625 C 13.332031 -13.453125 12.828125 -13.914062 12.421875 -14.53125 C 12.023438 -15.15625 11.765625 -15.90625 11.640625 -16.78125 C 11.253906 -16.625 10.882812 -16.378906 10.53125 -16.046875 C 10.1875 -15.710938 9.851562 -15.304688 9.53125 -14.828125 C 9.207031 -14.347656 8.910156 -13.804688 8.640625 -13.203125 C 8.367188 -12.597656 8.128906 -11.957031 7.921875 -11.28125 L 7.921875 -0.421875 C 7.921875 -0.0859375 7.78125 0.160156 7.5 0.328125 C 7.21875 0.492188 6.789062 0.578125 6.21875 0.578125 Z M 6.21875 0.578125 "/></g></g><g style="fill:#b27021;fill-opacity:1;"><g transform="translate(328.117687, 211.249688)"><path style="stroke:none" d="M 9.96875 0.65625 C 8.5 0.65625 7.195312 0.300781 6.0625 -0.40625 C 4.9375 -1.113281 4.050781 -2.1875 3.40625 -3.625 C 2.757812 -5.070312 2.4375 -6.890625 2.4375 -9.078125 C 2.4375 -10.421875 2.554688 -11.660156 2.796875 -12.796875 C 3.046875 -13.929688 3.414062 -14.945312 3.90625 -15.84375 C 4.394531 -16.75 4.984375 -17.507812 5.671875 -18.125 C 6.367188 -18.75 7.171875 -19.226562 8.078125 -19.5625 C 8.984375 -19.894531 9.976562 -20.0625 11.0625 -20.0625 C 11.882812 -20.0625 12.734375 -19.925781 13.609375 -19.65625 C 14.484375 -19.382812 15.304688 -19.03125 16.078125 -18.59375 L 16.078125 -18.78125 C 16.078125 -19.164062 16.21875 -19.445312 16.5 -19.625 C 16.789062 -19.8125 17.21875 -19.90625 17.78125 -19.90625 C 18.34375 -19.90625 18.757812 -19.820312 19.03125 -19.65625 C 19.300781 -19.488281 19.4375 -19.222656 19.4375 -18.859375 L 19.4375 -3.71875 C 19.4375 -3.375 19.488281 -3.09375 19.59375 -2.875 C 19.695312 -2.65625 19.835938 -2.492188 20.015625 -2.390625 C 20.203125 -2.285156 20.410156 -2.234375 20.640625 -2.234375 C 20.898438 -2.234375 21.113281 -2.265625 21.28125 -2.328125 C 21.445312 -2.398438 21.613281 -2.5 21.78125 -2.625 C 21.945312 -2.757812 22.144531 -2.914062 22.375 -3.09375 C 22.5625 -3.25 22.769531 -3.289062 23 -3.21875 C 23.226562 -3.15625 23.460938 -3.023438 23.703125 -2.828125 C 23.929688 -2.566406 24.054688 -2.289062 24.078125 -2 C 24.109375 -1.71875 24.054688 -1.476562 23.921875 -1.28125 C 23.640625 -0.863281 23.28125 -0.515625 22.84375 -0.234375 C 22.40625 0.046875 21.9375 0.265625 21.4375 0.421875 C 20.9375 0.578125 20.425781 0.65625 19.90625 0.65625 C 19.3125 0.65625 18.796875 0.585938 18.359375 0.453125 C 17.921875 0.328125 17.546875 0.128906 17.234375 -0.140625 C 16.929688 -0.410156 16.695312 -0.738281 16.53125 -1.125 C 16.363281 -1.507812 16.238281 -1.945312 16.15625 -2.4375 C 16.15625 -2.457031 16.140625 -2.515625 16.109375 -2.609375 C 16.085938 -2.703125 16.078125 -2.800781 16.078125 -2.90625 C 15.484375 -1.945312 14.84375 -1.207031 14.15625 -0.6875 C 13.476562 -0.175781 12.78125 0.171875 12.0625 0.359375 C 11.34375 0.554688 10.644531 0.65625 9.96875 0.65625 Z M 5.84375 -9.234375 C 5.84375 -7.816406 6.007812 -6.597656 6.34375 -5.578125 C 6.675781 -4.566406 7.179688 -3.789062 7.859375 -3.25 C 8.546875 -2.707031 9.40625 -2.4375 10.4375 -2.4375 C 11.1875 -2.4375 11.898438 -2.5625 12.578125 -2.8125 C 13.265625 -3.070312 13.90625 -3.5 14.5 -4.09375 C 15.09375 -4.6875 15.617188 -5.460938 16.078125 -6.421875 L 16.078125 -15.765625 C 15.273438 -16.253906 14.5 -16.582031 13.75 -16.75 C 13.007812 -16.925781 12.226562 -17.015625 11.40625 -17.015625 C 10.738281 -17.015625 10.117188 -16.910156 9.546875 -16.703125 C 8.984375 -16.492188 8.46875 -16.179688 8 -15.765625 C 7.539062 -15.359375 7.148438 -14.84375 6.828125 -14.21875 C 6.503906 -13.601562 6.257812 -12.882812 6.09375 -12.0625 C 5.925781 -11.238281 5.84375 -10.296875 5.84375 -9.234375 Z M 5.84375 -9.234375 "/></g></g></g></svg>